<?xml version="1.0" encoding="utf-8"?>
<!-- Generator: Adobe Illustrator 16.0.0, SVG Export Plug-In . SVG Version: 6.00 Build 0)  -->
<!DOCTYPE svg PUBLIC "-//W3C//DTD SVG 1.1//EN" "http://www.w3.org/Graphics/SVG/1.1/DTD/svg11.dtd">
<svg version="1.1" id="Layer_1" xmlns="http://www.w3.org/2000/svg" xmlns:xlink="http://www.w3.org/1999/xlink" x="0px" y="0px"
	 width="512px" height="512px" viewBox="0 0 512 512" enable-background="new 0 0 512 512" xml:space="preserve">
<path d="M70.999,89c39.328,0,78.657,0,117.985,0c7.757,3.1,9.952,9.112,9.919,17.052c-0.178,43.654-0.085,87.309-0.085,130.964
	c0,1.955,0,3.909,0,6.215c30.91,0,61.263,0,91.985,0c0-2.245,0-4.221,0-6.197c0-42.822-0.003-85.643,0.002-128.465
	c0.002-10.852,4.226-15.07,15.109-15.073c29.658-0.009,59.316-0.003,88.976-0.003c10.164,0,20.328-0.078,30.491,0.035
	c6.393,0.07,11.913,3.843,12.194,9.609c0.564,11.567,0.168,23.181,0.168,35.083c-3.453,0-6.434,0-9.415,0
	c-24.66,0-49.32-0.014-73.98,0.007c-9.83,0.008-13.681,3.794-13.704,13.389c-0.018,7.332-0.092,14.665,0.034,21.994
	c0.106,6.19,2.416,9.096,8.448,10.612c2.223,0.558,4.603,0.672,6.911,0.677c25.493,0.045,50.986,0.028,76.479,0.028
	c1.744,0,3.489,0,5.193,0c0,15.068,0,29.339,0,44.117c-2.02,0-3.804,0-5.588,0c-25.493,0-50.986,0-76.479,0
	c-1.332,0-2.667-0.04-3.998,0.014c-8.538,0.344-12.675,4.638-12.679,13.143c-0.004,8.831-0.002,17.663-0.001,26.493
	c0.002,9.471,3.766,13.271,13.254,13.276c26.659,0.017,53.318,0.006,79.979,0.006c1.778,0,3.558,0,5.42,0
	c0,15.598,0,30.646,0,45.994c-2.145,0-3.954,0-5.765,0c-26.992,0-53.985-0.011-80.978,0.007c-8.366,0.006-11.901,3.5-11.908,11.661
	c-0.007,7.831-0.003,15.662-0.002,23.493c0.002,9.27,3.535,12.762,13.016,12.767c26.826,0.014,53.652,0.005,80.478,0.005
	c1.751,0,3.501,0,5.494,0c0,12.398,0.006,24.046-0.001,35.694c-0.006,10.288-4.573,15.146-14.786,15.166
	c-39.155,0.074-78.312,0.068-117.468,0.004c-10.315-0.018-14.888-4.771-14.89-15.04c-0.009-40.322-0.004-80.645-0.004-120.967
	c0-1.935,0-3.869,0-5.711c-30.973,0-61.229,0-91.985,0c0,2.285,0,4.241,0,6.197c0,39.822,0.007,79.645-0.004,119.467
	c-0.003,11.648-4.402,16.073-15.966,16.077c-35.49,0.01-70.981,0.012-106.471-0.001c-11.399-0.005-15.543-4.227-15.543-15.766
	c-0.002-101.972,0.054-203.944-0.107-305.916C60.713,97.082,63.266,91.628,70.999,89z"/>
</svg>
